<?xml version="1.0" standalone="no"?>
<!DOCTYPE svg PUBLIC "-//W3C//DTD SVG 20010904//EN"
 "http://www.w3.org/TR/2001/REC-SVG-20010904/DTD/svg10.dtd">
<svg version="1.0" xmlns="http://www.w3.org/2000/svg"
 width="128.000000pt" height="128.000000pt" viewBox="0 0 128.000000 128.000000"
 preserveAspectRatio="xMidYMid meet">
<metadata>
Created by potrace 1.13, written by Peter Selinger 2001-2015
</metadata>
<g transform="translate(0.000000,128.000000) scale(0.100000,-0.100000)"
fill="#000000" stroke="none">
<path d="M245 1140 l-100 -5 -3 -68 c-4 -91 2 -97 95 -97 46 0 85 -6 103 -15
26 -14 29 -14 24 0 -5 12 4 15 47 15 77 0 80 4 77 91 l-3 74 -70 5 c-38 3
-115 3 -170 0z m137 -49 c14 -20 14 -20 26 0 23 37 72 17 72 -30 0 -51 -58
-81 -82 -42 -12 20 -12 20 -26 0 -25 -36 -72 -18 -72 28 0 56 54 84 82 44z"/>
<path d="M602 1098 c-17 -17 -15 -64 4 -82 20 -20 33 -20 56 1 17 15 18 15 18
-1 0 -25 23 -14 31 15 7 23 7 23 8 2 1 -30 21 -40 28 -14 7 26 23 28 23 2 0
-30 53 -21 61 10 7 23 7 23 8 2 2 -34 20 -37 33 -6 11 27 12 27 15 6 5 -24 8
-25 81 -28 36 -2 42 1 42 19 0 20 1 20 20 -4 21 -28 41 -19 22 10 -7 12 -8 21
-2 25 6 3 10 0 10 -8 0 -24 33 -44 78 -45 29 -1 42 3 42 13 0 7 -6 16 -12 18
-10 4 -10 6 0 6 6 1 12 7 12 15 0 8 -6 17 -12 19 -10 4 -10 6 0 6 6 1 12 8 12
16 0 22 -98 21 -107 0 -5 -14 -7 -14 -22 -1 -10 9 -38 14 -73 15 l-58 0 -2
-47 -1 -47 -6 45 c-7 52 -35 67 -50 28 l-10 -23 0 23 c-1 15 -7 22 -20 22 -15
0 -21 -10 -27 -42 l-8 -43 -6 40 c-6 47 -34 60 -49 23 l-10 -23 0 23 c-1 35
-41 30 -41 -5 l-1 -28 -15 28 c-16 29 -51 36 -72 15z"/>
<path d="M1030 922 c-14 -2 -29 -10 -33 -18 -4 -8 -21 -21 -37 -29 -27 -14
-30 -14 -30 0 0 28 -19 5 -26 -31 -5 -30 -8 -32 -18 -18 -11 14 -13 14 -27 -2
-11 -13 -11 -18 -1 -21 6 -3 12 -14 12 -24 0 -13 6 -20 18 -18 26 3 83 -24 78
-37 -2 -6 4 -26 15 -43 10 -17 19 -40 19 -50 0 -29 10 -31 49 -11 20 10 44 21
54 24 25 8 22 46 -3 46 -24 0 -26 25 -4 48 15 14 15 16 -6 24 l-21 8 20 29
c12 16 21 31 21 34 0 11 -87 -7 -128 -26 -37 -17 -45 -18 -53 -6 -22 36 30 71
118 78 l68 6 -30 20 c-17 12 -41 19 -55 17z"/>
<path d="M660 583 c-51 -19 -68 -84 -30 -118 16 -14 20 -31 20 -77 0 -59 0
-59 28 -56 25 3 27 6 30 58 2 30 9 62 16 70 35 40 25 98 -21 119 -13 6 -25 11
-26 10 -1 0 -9 -3 -17 -6z"/>
<path d="M250 186 c0 -8 -5 -16 -12 -18 -15 -5 9 -135 27 -142 7 -2 22 2 34
11 18 12 21 21 16 44 -4 18 -3 29 4 29 6 0 11 -12 11 -27 0 -45 14 -59 47 -47
23 8 28 15 26 38 -1 16 4 38 12 50 15 20 21 66 9 66 -21 0 -44 -24 -44 -48
l-1 -27 -14 25 c-8 14 -14 33 -15 43 0 17 -20 25 -20 8 0 -5 -9 -12 -19 -16
-11 -3 -21 -16 -24 -28 -2 -17 -5 -13 -11 16 -8 36 -26 52 -26 23z"/>
<path d="M521 181 c-20 -15 -23 -26 -22 -75 0 -71 14 -92 42 -68 10 9 19 21
19 27 0 6 15 17 33 25 17 7 35 15 40 18 4 2 7 -12 7 -32 0 -42 14 -53 46 -35
21 11 26 10 37 -4 17 -22 47 -24 85 -4 28 15 32 16 32 2 0 -16 15 -20 24 -7 6
10 68 8 84 -2 6 -4 20 -1 31 6 16 10 23 10 33 0 30 -30 118 2 99 36 -6 11 -5
19 5 27 12 8 10 15 -10 40 l-24 30 -35 -17 c-26 -12 -37 -25 -40 -45 -2 -15
-5 0 -6 35 0 34 -5 62 -11 62 -5 0 -10 -7 -10 -16 0 -11 -5 -14 -17 -9 -64 26
-72 26 -98 9 -24 -16 -26 -22 -21 -58 l6 -41 -21 39 c-17 32 -24 37 -45 32
-13 -3 -36 -9 -50 -12 -17 -5 -29 -2 -35 7 -6 11 -11 11 -21 1 -16 -16 -38
-15 -38 2 0 24 -40 47 -62 35 -12 -6 -18 -6 -18 1 0 15 -12 12 -39 -9z"/>
</g>
</svg>
